#!OML:ASF X:\für Bonn\!DataBase\2005_08_11_Bastian_Final\c3d\Bastian.ASF
:FULLY-SPECIFIED
:DEGREES
47
root -15.6893 17.3063 -0.0827542 145.273 -67.7538 -153.731
lowerback 6.81106 4.38705 10.8893
upperback 4.51862 6.08276 4.30794
thorax 1.61656 3.0943 -1.84218
lowerneck -10.0739 -3.15893 -4.00165
upperneck -8.02007 -3.99057 4.58564
head -0.647711 -2.03329 2.0228
rclavicle 7.81472e-015 6.08281e-014
rhumerus 20.6657 16.4723 -62.4658
rradius 67.4866
rwrist -2.54696
rhand -14.3806 7.27852
rfingers 7.12502
rthumb 11.7621 -22.3712
lclavicle 7.81472e-015 6.08281e-014
lhumerus -39.2964 -0.0771442 86.3539
lradius 12.2729
lwrist 4.36194
lhand -5.32959 -4.89851
lfingers 7.12502
lthumb 20.4767 24.0417
rfemur 13.988 1.49201 30.62
rtibia 22.2757
rfoot -17.1675 5.12267
rtoes -7.65697
lfemur -12.5354 -13.7553 1.44548
ltibia 12.6273
lfoot -7.23239 11.0428
ltoes -26.3984
48
root -15.8295 17.2944 -0.0680731 145.889 -67.392 -154.279
lowerback 6.71346 4.56217 10.924
upperback 4.49273 6.31296 4.18927
thorax 1.68676 3.2171 -1.97962
lowerneck -10.3228 -3.24894 -4.04782
upperneck -7.89255 -4.09783 4.69301
head -0.558031 -2.08329 2.05682
rclavicle 1.07443e-013 1.51076e-014
rhumerus 22.7429 16.0817 -61.8936
rradius 66.4677
rwrist -2.28789
rhand -14.4273 7.56842
rfingers 7.12502
rthumb 11.717 -22.0839
lclavicle 1.07443e-013 1.51076e-014
lhumerus -38.9394 -0.432051 86.3215
lradius 12.4379
lwrist 4.56047
lhand -5.36054 -4.98248
lfingers 7.12502
lthumb 20.447 23.9609
rfemur 14.4637 1.90749 30.47
rtibia 22.0791
rfoot -17.2985 5.04242
rtoes -8.63517
lfemur -12.4159 -13.4135 1.30271
ltibia 12.7837
lfoot -6.78334 10.6368
ltoes -27.8479
49
root -15.9696 17.2817 -0.0531042 146.495 -67.0814 -154.8
lowerback 6.60105 4.734 10.9264
upperback 4.44849 6.53829 4.07103
thorax 1.74221 3.33619 -2.09821
lowerneck -10.5121 -3.34105 -4.0887
upperneck -7.81051 -4.21036 4.77819
head -0.492815 -2.13673 2.08396
rclavicle -4.74598e-014 -5.1684e-014
rhumerus 24.7508 15.6994 -61.2941
rradius 65.4169
rwrist -2.07226
rhand -14.5726 7.87421
rfingers 7.12502
rthumb 11.5769 -21.786
lclavicle -4.74598e-014 -5.1684e-014
lhumerus -38.5559 -0.837323 86.3301
lradius 12.5711
lwrist 4.80253
lhand -5.4035 -5.09529
lfingers 7.12502
lthumb 20.4057 23.8525
rfemur 14.9182 2.32997 30.3057
rtibia 21.8818
rfoot -17.3842 4.92604
rtoes -9.51864
lfemur -12.3624 -12.926 1.10577
ltibia 13.03
lfoot -6.17926 9.99979
ltoes -28.8668
50
root -16.1106 17.2698 -0.0391292 147.078 -66.8008 -155.338
lowerback 6.49547 4.90368 10.8869
upperback 4.4198 6.758 3.95664
thorax 1.80474 3.45212 -2.18911
lowerneck -10.7188 -3.43978 -4.14703
upperneck -7.70875 -4.3292 4.86698
head -0.417416 -2.19231 2.1145
rclavicle 6.32508e-014 1.03368e-014
rhumerus 26.7606 15.3378 -60.6406
rradius 64.2857
rwrist -1.90218
rhand -14.8754 8.19095
rfingers 7.12502
rthumb 11.2849 -21.4855
lclavicle 6.32508e-014 1.03368e-014
lhumerus -38.1181 -1.16719 86.2995
lradius 12.645
lwrist 5.00591
lhand -5.5007 -5.30913
lfingers 7.12502
lthumb 20.3123 23.6487
rfemur 15.402 2.72744 30.1184
rtibia 21.7017
rfoot -17.4644 4.79286
rtoes -10.3135
lfemur -12.2772 -12.1035 0.824437
ltibia 13.3115
lfoot -5.36923 8.92436
ltoes -29.5486
51
root -16.2515 17.2599 -0.0241118 147.61 -66.5286 -155.804
lowerback 6.37572 5.0588 10.8743
upperback 4.3753 6.95991 3.83446
thorax 1.86148 3.55944 -2.30071
lowerneck -10.8675 -3.51679 -4.14669
upperneck -7.64615 -4.42739 4.92587
head -0.366956 -2.23986 2.12685
rclavicle 7.62339e-014 2.94201e-014
rhumerus 28.7113 15.035 -59.9774
rradius 63.1676
rwrist -1.86065
rhand -15.2414 8.47067
rfingers 7.12502
rthumb 10.9319 -21.2247
lclavicle 7.62339e-014 2.94201e-014
lhumerus -37.6984 -1.49509 86.2472
lradius 12.7517
lwrist 5.2341
lhand -5.62452 -5.57172
lfingers 7.12502
lthumb 20.1933 23.3987
rfemur 15.8561 3.10604 29.9409
rtibia 21.5251
rfoot -17.4975 4.65069
rtoes -11.1603
lfemur -12.2175 -11.5045 0.56997
ltibia 13.644
lfoot -4.43319 8.04434
ltoes -30.2432
52
root -16.3926 17.2528 -0.00725251 148.192 -66.3253 -156.34
lowerback 6.26112 5.20966 10.829
upperback 4.33049 7.15742 3.68187
thorax 1.91473 3.66499 -2.42586
lowerneck -11.015 -3.60817 -4.12594
upperneck -7.57937 -4.54639 5.00216
head -0.314287 -2.29808 2.14032
rclavicle 2.84697e-014 -3.39922e-014
rhumerus 30.6305 14.7011 -59.3381
rradius 61.9912
rwrist -1.87674
rhand -15.6866 8.732
rfingers 7.12502
rthumb 10.5025 -20.9856
lclavicle 2.84697e-014 -3.39922e-014
lhumerus -37.2463 -1.85038 86.1919
lradius 12.8349
lwrist 5.49126
lhand -5.77632 -5.86115
lfingers 7.12502
lthumb 20.0474 23.1246
rfemur 16.3165 3.37149 29.6503
rtibia 21.3388
rfoot -17.5188 4.5832
rtoes -12.1444
lfemur -12.1907 -10.8954 0.219223
ltibia 14.064
lfoot -3.4352 7.1408
ltoes -30.5796
53
root -16.5333 17.2477 0.0117749 148.691 -66.1448 -156.796
lowerback 6.14709 5.34262 10.796
upperback 4.29342 7.32912 3.55935
thorax 1.97128 3.75693 -2.52514
lowerneck -11.1285 -3.69635 -4.12773
upperneck -7.53968 -4.66065 5.03514
head -0.276747 -2.35396 2.14455
rclavicle -2.75565e-014 -3.97569e-015
rhumerus 32.5541 14.4106 -58.6112
rradius 60.7916
rwrist -1.93128
rhand -16.159 8.97826
rfingers 7.12502
rthumb 10.0468 -20.7619
lclavicle -2.75565e-014 -3.97569e-015
lhumerus -36.7401 -2.06633 86.1214
lradius 12.8794
lwrist 5.70149
lhand -5.98703 -6.14917
lfingers 7.12502
lthumb 19.8448 22.8577
rfemur 16.779 3.53724 29.3407
rtibia 21.1257
rfoot -17.5031 4.55565
rtoes -13.1915
lfemur -12.2199 -10.3059 -0.133651
ltibia 14.6273
lfoot -2.43556 6.26629
ltoes -30.1157
54
root -16.6734 17.2454 0.0316862 149.162 -65.988 -157.221
lowerback 6.03904 5.47542 10.8003
upperback 4.24166 7.50614 3.40177
thorax 2.02028 3.85286 -2.68078
lowerneck -11.2318 -3.78811 -4.06839
upperneck -7.50464 -4.78654 5.06653
head -0.243435 -2.41722 2.13698
rclavicle 3.63279e-014 4.76089e-014
rhumerus 34.4013 14.0943 -57.8979
rradius 59.6061
rwrist -2.06038
rhand -16.6572 9.10054
rfingers 7.12502
rthumb 9.56615 -20.6623
lclavicle 3.63279e-014 4.76089e-014
lhumerus -36.2441 -2.36639 86.0306
lradius 12.9734
lwrist 5.98592
lhand -6.21159 -6.35825
lfingers 7.12502
lthumb 19.6289 22.6708
rfemur 17.2319 3.67736 29.0249
rtibia 20.8995
rfoot -17.3921 4.51801
rtoes -14.2887
lfemur -12.2923 -9.57507 -0.531643
ltibia 15.3352
lfoot -1.47587 5.37514
ltoes -29.758
55
root -16.8136 17.2446 0.051836 149.629 -65.8826 -157.646
lowerback 5.91274 5.59719 10.7591
upperback 4.19339 7.66363 3.25877
thorax 2.073 3.93795 -2.79463
lowerneck -11.2671 -3.89027 -4.05838
upperneck -7.53078 -4.92236 5.10181
head -0.239023 -2.48555 2.141
rclavicle -3.84245e-014 -4.76089e-014
rhumerus 36.2021 13.773 -57.1502
rradius 58.4147
rwrist -2.23966
rhand -17.1023 9.24702
rfingers 7.12502
rthumb 9.13667 -20.5351
lclavicle -3.84245e-014 -4.76089e-014
lhumerus -35.6803 -2.33877 85.794
lradius 12.9912
lwrist 5.97209
lhand -6.45425 -6.59304
lfingers 7.12502
lthumb 19.3956 22.4596
rfemur 17.674 3.83892 28.7183
rtibia 20.7013
rfoot -17.2489 4.36201
rtoes -15.6382
lfemur -12.3918 -8.7564 -0.992064
ltibia 16.1466
lfoot -0.63464 4.38492
ltoes -30.2524
56
root -16.9531 17.2438 0.0722759 150.043 -65.8235 -158.014
lowerback 5.77753 5.69738 10.7305
upperback 4.14883 7.79193 3.09841
thorax 2.13576 4.00978 -2.93093
lowerneck -11.341 -3.98535 -4.02056
upperneck -7.52408 -5.05107 5.14136
head -0.218682 -2.5503 2.14053
rclavicle 9.72135e-014 2.90226e-014
rhumerus 37.937 13.412 -56.4914
rradius 57.2366
rwrist -2.29931
rhand -17.4674 9.31947
rfingers 7.12502
rthumb 8.78428 -20.4777
lclavicle 9.72135e-014 2.90226e-014
lhumerus -35.1038 -2.40208 85.5908
lradius 13.0469
lwrist 6.11498
lhand -6.73825 -6.77219
lfingers 7.12502
lthumb 19.1225 22.3077
rfemur 18.0803 3.99729 28.4332
rtibia 20.5728
rfoot -17.0521 4.13195
rtoes -16.9474
lfemur -12.5214 -8.00036 -1.45252
ltibia 17.011
lfoot 0.0525902 3.45311
ltoes -31.1386
57
root -17.0921 17.2453 0.0920115 150.436 -65.8 -158.367
lowerback 5.62871 5.7958 10.6889
upperback 4.10566 7.91598 2.93212
thorax 2.20657 4.07982 -3.06417
lowerneck -11.3412 -4.08435 -3.97767
upperneck -7.59828 -5.18728 5.18672
head -0.235981 -2.62075 2.14319
rclavicle 7.83491e-015 3.91606e-014
rhumerus 39.6058 13.0256 -55.8191
rradius 56.057
rwrist -2.3483
rhand -17.8061 9.35999
rfingers 7.12502
rthumb 8.45746 -20.4507
lclavicle 7.83491e-015 3.91606e-014
lhumerus -34.5119 -2.38232 85.3203
lradius 13.1047
lwrist 6.20455
lhand -7.01637 -6.94237
lfingers 7.12502
lthumb 18.8551 22.1638
rfemur 18.4394 4.14745 28.1613
rtibia 20.5534
rfoot -16.8146 3.82523
rtoes -18.34
lfemur -12.6595 -7.27009 -1.91548
ltibia 17.871
lfoot 0.605956 2.53971
ltoes -32.0972
